<svg id="SvgjsSvg1006" width="583" height="628" xmlns="http://www.w3.org/2000/svg" version="1.1" xmlns:xlink="http://www.w3.org/1999/xlink" xmlns:svgjs="http://svgjs.com/svgjs"><defs id="SvgjsDefs1007"><marker id="SvgjsMarker1034" markerWidth="16" markerHeight="12" refX="16" refY="6" viewBox="0 0 16 12" orient="auto" markerUnits="userSpaceOnUse" stroke-dasharray="0,0"><path id="SvgjsPath1035" d="M0,2 L14,6 L0,11 L0,2" fill="#323232" stroke="#323232" stroke-width="2"></path></marker><marker id="SvgjsMarker1042" markerWidth="16" markerHeight="12" refX="16" refY="6" viewBox="0 0 16 12" orient="auto" markerUnits="userSpaceOnUse" stroke-dasharray="0,0"><path id="SvgjsPath1043" d="M0,2 L14,6 L0,11 L0,2" fill="#323232" stroke="#323232" stroke-width="2"></path></marker><marker id="SvgjsMarker1050" markerWidth="16" markerHeight="12" refX="16" refY="6" viewBox="0 0 16 12" orient="auto" markerUnits="userSpaceOnUse" stroke-dasharray="0,0"><path id="SvgjsPath1051" d="M0,2 L14,6 L0,11 L0,2" fill="#323232" stroke="#323232" stroke-width="2"></path></marker><marker id="SvgjsMarker1058" markerWidth="16" markerHeight="12" refX="16" refY="6" viewBox="0 0 16 12" orient="auto" markerUnits="userSpaceOnUse" stroke-dasharray="0,0"><path id="SvgjsPath1059" d="M0,2 L14,6 L0,11 L0,2" fill="#323232" stroke="#323232" stroke-width="2"></path></marker><marker id="SvgjsMarker1066" markerWidth="16" markerHeight="12" refX="16" refY="6" viewBox="0 0 16 12" orient="auto" markerUnits="userSpaceOnUse" stroke-dasharray="0,0"><path id="SvgjsPath1067" d="M0,2 L14,6 L0,11 L0,2" fill="#323232" stroke="#323232" stroke-width="2"></path></marker><marker id="SvgjsMarker1074" markerWidth="16" markerHeight="12" refX="16" refY="6" viewBox="0 0 16 12" orient="auto" markerUnits="userSpaceOnUse" stroke-dasharray="0,0"><path id="SvgjsPath1075" d="M0,2 L14,6 L0,11 L0,2" fill="#323232" stroke="#323232" stroke-width="2"></path></marker><marker id="SvgjsMarker1082" markerWidth="16" markerHeight="12" refX="16" refY="6" viewBox="0 0 16 12" orient="auto" markerUnits="userSpaceOnUse" stroke-dasharray="0,0"><path id="SvgjsPath1083" d="M0,2 L14,6 L0,11 L0,2" fill="#323232" stroke="#323232" stroke-width="2"></path></marker><marker id="SvgjsMarker1090" markerWidth="16" markerHeight="12" refX="16" refY="6" viewBox="0 0 16 12" orient="auto" markerUnits="userSpaceOnUse" stroke-dasharray="0,0"><path id="SvgjsPath1091" d="M0,2 L14,6 L0,11 L0,2" fill="#323232" stroke="#323232" stroke-width="2"></path></marker><marker id="SvgjsMarker1098" markerWidth="16" markerHeight="12" refX="16" refY="6" viewBox="0 0 16 12" orient="auto" markerUnits="userSpaceOnUse" stroke-dasharray="0,0"><path id="SvgjsPath1099" d="M0,2 L14,6 L0,11 L0,2" fill="#323232" stroke="#323232" stroke-width="2"></path></marker><marker id="SvgjsMarker1106" markerWidth="16" markerHeight="12" refX="16" refY="6" viewBox="0 0 16 12" orient="auto" markerUnits="userSpaceOnUse" stroke-dasharray="0,0"><path id="SvgjsPath1107" d="M0,2 L14,6 L0,11 L0,2" fill="#323232" stroke="#323232" stroke-width="2"></path></marker><marker id="SvgjsMarker1114" markerWidth="16" markerHeight="12" refX="16" refY="6" viewBox="0 0 16 12" orient="auto" markerUnits="userSpaceOnUse" stroke-dasharray="0,0"><path id="SvgjsPath1115" d="M0,2 L14,6 L0,11 L0,2" fill="#323232" stroke="#323232" stroke-width="2"></path></marker><marker id="SvgjsMarker1122" markerWidth="16" markerHeight="12" refX="16" refY="6" viewBox="0 0 16 12" orient="auto" markerUnits="userSpaceOnUse" stroke-dasharray="0,0"><path id="SvgjsPath1123" d="M0,2 L14,6 L0,11 L0,2" fill="#323232" stroke="#323232" stroke-width="2"></path></marker></defs><g id="SvgjsG1008" transform="translate(25,25)"><path id="SvgjsPath1009" d="M 0 4Q 0 0 4 0L 131 0Q 135 0 135 4L 135 574Q 135 578 131 578L 4 578Q 0 578 0 574Z" stroke="rgba(50,50,50,1)" stroke-width="2" fill-opacity="1" fill="#ffffff"></path><g id="SvgjsG1010"><text id="SvgjsText1011" font-family="微软雅黑" text-anchor="middle" font-size="15px" width="115px" fill="#323232" font-weight="700" align="middle" lineHeight="125%" anchor="middle" family="微软雅黑" size="15px" weight="700" font-style="" opacity="1" y="251.125" transform="rotate(0)"><tspan id="SvgjsTspan1012" dy="18" x="67.5"><tspan id="SvgjsTspan1013" style="text-decoration:;">SSL</tspan></tspan><tspan id="SvgjsTspan1014" dy="18" x="67.5"><tspan id="SvgjsTspan1015" style="text-decoration:;"> </tspan></tspan><tspan id="SvgjsTspan1016" dy="18" x="67.5"><tspan id="SvgjsTspan1017" style="text-decoration:;"> </tspan></tspan><tspan id="SvgjsTspan1018" dy="18" x="67.5"><tspan id="SvgjsTspan1019" style="text-decoration:;">Client</tspan></tspan></text></g></g><g id="SvgjsG1020" transform="translate(423,25)"><path id="SvgjsPath1021" d="M 0 4Q 0 0 4 0L 131 0Q 135 0 135 4L 135 574Q 135 578 131 578L 4 578Q 0 578 0 574Z" stroke="rgba(50,50,50,1)" stroke-width="2" fill-opacity="1" fill="#ffffff"></path><g id="SvgjsG1022"><text id="SvgjsText1023" font-family="微软雅黑" text-anchor="middle" font-size="14px" width="115px" fill="#323232" font-weight="700" align="middle" lineHeight="125%" anchor="middle" family="微软雅黑" size="14px" weight="700" font-style="" opacity="1" y="253.25" transform="rotate(0)"><tspan id="SvgjsTspan1024" dy="17" x="67.5"><tspan id="SvgjsTspan1025" style="text-decoration:;">SSL</tspan></tspan><tspan id="SvgjsTspan1026" dy="17" x="67.5"><tspan id="SvgjsTspan1027" style="text-decoration:;"> </tspan></tspan><tspan id="SvgjsTspan1028" dy="17" x="67.5"><tspan id="SvgjsTspan1029" style="text-decoration:;"> </tspan></tspan><tspan id="SvgjsTspan1030" dy="17" x="67.5"><tspan id="SvgjsTspan1031" style="text-decoration:;">Server</tspan></tspan></text></g></g><g id="SvgjsG1032"><path id="SvgjsPath1033" d="M160 56L291.5 56L291.5 56L423 56" stroke="#323232" stroke-width="2" fill="none" marker-end="url(#SvgjsMarker1034)"></path><rect id="SvgjsRect1036" width="80" height="18" x="251.5" y="47" fill="#ffffff"></rect><text id="SvgjsText1037" font-family="微软雅黑" text-anchor="middle" font-size="14px" width="80px" fill="#323232" font-weight="700" align="top" lineHeight="18px" anchor="middle" family="微软雅黑" size="14px" weight="700" font-style="" opacity="1" y="45.25" transform="rotate(0)"><tspan id="SvgjsTspan1038" dy="17" x="291.5"><tspan id="SvgjsTspan1039" style="text-decoration:;">Client hello</tspan></tspan></text></g><g id="SvgjsG1040"><path id="SvgjsPath1041" d="M423 108L291.5 108L291.5 108L160 108" stroke="#323232" stroke-width="2" fill="none" marker-end="url(#SvgjsMarker1042)"></path><rect id="SvgjsRect1044" width="84" height="18" x="249.5" y="99" fill="#ffffff"></rect><text id="SvgjsText1045" font-family="微软雅黑" text-anchor="middle" font-size="14px" width="84px" fill="#323232" font-weight="700" align="top" lineHeight="18px" anchor="middle" family="微软雅黑" size="14px" weight="700" font-style="" opacity="1" y="97.25" transform="rotate(0)"><tspan id="SvgjsTspan1046" dy="17" x="291.5"><tspan id="SvgjsTspan1047" style="text-decoration:;">Server hello</tspan></tspan></text></g><g id="SvgjsG1048"><path id="SvgjsPath1049" d="M423 162L291.5 162L291.5 162L160 162" stroke="#323232" stroke-width="2" fill="none" marker-end="url(#SvgjsMarker1050)"></path><rect id="SvgjsRect1052" width="73" height="18" x="255" y="153" fill="#ffffff"></rect><text id="SvgjsText1053" font-family="微软雅黑" text-anchor="middle" font-size="14px" width="73px" fill="#323232" font-weight="700" align="top" lineHeight="18px" anchor="middle" family="微软雅黑" size="14px" weight="700" font-style="" opacity="1" y="151.25" transform="rotate(0)"><tspan id="SvgjsTspan1054" dy="17" x="291.5"><tspan id="SvgjsTspan1055" style="text-decoration:;">Certificate</tspan></tspan></text></g><g id="SvgjsG1056"><path id="SvgjsPath1057" d="M423 208L291.5 208L291.5 208L160 208" stroke="#323232" stroke-width="2" fill="none" marker-end="url(#SvgjsMarker1058)"></path><rect id="SvgjsRect1060" width="146" height="18" x="218.5" y="199" fill="#ffffff"></rect><text id="SvgjsText1061" font-family="微软雅黑" text-anchor="middle" font-size="14px" width="146px" fill="#323232" font-weight="700" align="top" lineHeight="18px" anchor="middle" family="微软雅黑" size="14px" weight="700" font-style="" opacity="1" y="197.25" transform="rotate(0)"><tspan id="SvgjsTspan1062" dy="17" x="291.5"><tspan id="SvgjsTspan1063" style="text-decoration:;">Server Key Exchange</tspan></tspan></text></g><g id="SvgjsG1064"><path id="SvgjsPath1065" d="M423 255L291.5 255L291.5 255L160 255" stroke="#323232" stroke-width="2" fill="none" marker-end="url(#SvgjsMarker1066)"></path><rect id="SvgjsRect1068" width="134" height="18" x="224.5" y="246" fill="#ffffff"></rect><text id="SvgjsText1069" font-family="微软雅黑" text-anchor="middle" font-size="14px" width="134px" fill="#323232" font-weight="700" align="top" lineHeight="18px" anchor="middle" family="微软雅黑" size="14px" weight="700" font-style="" opacity="1" y="244.25" transform="rotate(0)"><tspan id="SvgjsTspan1070" dy="17" x="291.5"><tspan id="SvgjsTspan1071" style="text-decoration:;">Certificate Request</tspan></tspan></text></g><g id="SvgjsG1072"><path id="SvgjsPath1073" d="M423 297L291.5 297L291.5 297L160 297" stroke="#323232" stroke-width="2" fill="none" marker-end="url(#SvgjsMarker1074)"></path><rect id="SvgjsRect1076" width="128" height="18" x="227.5" y="288" fill="#ffffff"></rect><text id="SvgjsText1077" font-family="微软雅黑" text-anchor="middle" font-size="14px" width="128px" fill="#323232" font-weight="700" align="top" lineHeight="18px" anchor="middle" family="微软雅黑" size="14px" weight="700" font-style="" opacity="1" y="286.25" transform="rotate(0)"><tspan id="SvgjsTspan1078" dy="17" x="291.5"><tspan id="SvgjsTspan1079" style="text-decoration:;">Server Hello Done</tspan></tspan></text></g><g id="SvgjsG1080"><path id="SvgjsPath1081" d="M160 341L291.5 341L291.5 341L423 341" stroke="#323232" stroke-width="2" fill="none" marker-end="url(#SvgjsMarker1082)"></path><rect id="SvgjsRect1084" width="142" height="18" x="220.5" y="332" fill="#ffffff"></rect><text id="SvgjsText1085" font-family="微软雅黑" text-anchor="middle" font-size="14px" width="142px" fill="#323232" font-weight="700" align="top" lineHeight="18px" anchor="middle" family="微软雅黑" size="14px" weight="700" font-style="" opacity="1" y="330.25" transform="rotate(0)"><tspan id="SvgjsTspan1086" dy="17" x="291.5"><tspan id="SvgjsTspan1087" style="text-decoration:;">Client Key Exchange</tspan></tspan></text></g><g id="SvgjsG1088"><path id="SvgjsPath1089" d="M160 390L291.5 390L291.5 390L423 390" stroke="#323232" stroke-width="2" fill="none" marker-end="url(#SvgjsMarker1090)"></path><rect id="SvgjsRect1092" width="119" height="18" x="232" y="381" fill="#ffffff"></rect><text id="SvgjsText1093" font-family="微软雅黑" text-anchor="middle" font-size="14px" width="119px" fill="#323232" font-weight="700" align="top" lineHeight="18px" anchor="middle" family="微软雅黑" size="14px" weight="700" font-style="" opacity="1" y="379.25" transform="rotate(0)"><tspan id="SvgjsTspan1094" dy="17" x="291.5"><tspan id="SvgjsTspan1095" style="text-decoration:;">Certificate Verify</tspan></tspan></text></g><g id="SvgjsG1096"><path id="SvgjsPath1097" d="M160 433L291.5 433L291.5 433L423 433" stroke="#323232" stroke-width="2" fill="none" marker-end="url(#SvgjsMarker1098)"></path><rect id="SvgjsRect1100" width="141" height="18" x="221" y="424" fill="#ffffff"></rect><text id="SvgjsText1101" font-family="微软雅黑" text-anchor="middle" font-size="14px" width="141px" fill="#323232" font-weight="700" align="top" lineHeight="18px" anchor="middle" family="微软雅黑" size="14px" weight="700" font-style="" opacity="1" y="422.25" transform="rotate(0)"><tspan id="SvgjsTspan1102" dy="17" x="291.5"><tspan id="SvgjsTspan1103" style="text-decoration:;">Change Cipher Spec</tspan></tspan></text></g><g id="SvgjsG1104"><path id="SvgjsPath1105" d="M160 478L291.5 478L291.5 478L423 478" stroke="#323232" stroke-width="2" fill="none" marker-end="url(#SvgjsMarker1106)"></path><rect id="SvgjsRect1108" width="220" height="18" x="181.5" y="469" fill="#ffffff"></rect><text id="SvgjsText1109" font-family="微软雅黑" text-anchor="middle" font-size="14px" width="220px" fill="#323232" font-weight="700" align="top" lineHeight="18px" anchor="middle" family="微软雅黑" size="14px" weight="700" font-style="" opacity="1" y="467.25" transform="rotate(0)"><tspan id="SvgjsTspan1110" dy="17" x="291.5"><tspan id="SvgjsTspan1111" style="text-decoration:;">Encrypted Handshake Message</tspan></tspan></text></g><g id="SvgjsG1112"><path id="SvgjsPath1113" d="M423 523L291.5 523L291.5 523L160 523" stroke="#323232" stroke-width="2" fill="none" marker-end="url(#SvgjsMarker1114)"></path><rect id="SvgjsRect1116" width="141" height="18" x="221" y="514" fill="#ffffff"></rect><text id="SvgjsText1117" font-family="微软雅黑" text-anchor="middle" font-size="14px" width="141px" fill="#323232" font-weight="700" align="top" lineHeight="18px" anchor="middle" family="微软雅黑" size="14px" weight="700" font-style="" opacity="1" y="512.25" transform="rotate(0)"><tspan id="SvgjsTspan1118" dy="17" x="291.5"><tspan id="SvgjsTspan1119" style="text-decoration:;">Change Cipher Spec</tspan></tspan></text></g><g id="SvgjsG1120"><path id="SvgjsPath1121" d="M423 568L291.5 568L291.5 568L160 568" stroke="#323232" stroke-width="2" fill="none" marker-end="url(#SvgjsMarker1122)"></path><rect id="SvgjsRect1124" width="220" height="18" x="181.5" y="559" fill="#ffffff"></rect><text id="SvgjsText1125" font-family="微软雅黑" text-anchor="middle" font-size="14px" width="220px" fill="#323232" font-weight="700" align="top" lineHeight="18px" anchor="middle" family="微软雅黑" size="14px" weight="700" font-style="" opacity="1" y="557.25" transform="rotate(0)"><tspan id="SvgjsTspan1126" dy="17" x="291.5"><tspan id="SvgjsTspan1127" style="text-decoration:;">Encrypted Handshake Message</tspan></tspan></text></g></svg>